<svg width="99" height="105" viewBox="0 0 99 105" fill="none" xmlns="http://www.w3.org/2000/svg">
<path d="M90.4684 52.29C90.4684 57.2833 89.4651 61.6467 87.4584 65.38C85.4517 69.0667 82.4884 71.9367 78.5684 73.99C74.695 75.9967 70.0284 77 64.5684 77H48.8884V27.65H64.5684C70.0284 27.65 74.695 28.6533 78.5684 30.66C82.4884 32.62 85.4517 35.4667 87.4584 39.2C89.4651 42.8867 90.4684 47.25 90.4684 52.29ZM64.0784 71.26C70.5184 71.26 75.4417 69.6033 78.8484 66.29C82.255 62.9767 83.9584 58.31 83.9584 52.29C83.9584 46.27 82.255 41.6033 78.8484 38.29C75.4884 34.93 70.565 33.25 64.0784 33.25H55.2584V71.26H64.0784Z" fill="#E7A94E"/>
<path d="M54.2784 26H49.2784L51.7784 21L54.2784 26Z" fill="#E7A94E"/>
<path d="M66.2784 26H61.2784L63.7784 21L66.2784 26Z" fill="#E7A94E"/>
<path d="M77.6294 28.0625L72.7784 26.851L76.4154 22.6058L77.6294 28.0625Z" fill="#E7A94E"/>
<path d="M85.7379 32.9852L81.7573 29.9596L86.7732 27.4917L85.7379 32.9852Z" fill="#E7A94E"/>
<path d="M91.3827 39.9299L88.8749 35.6043L94.4544 35.2594L91.3827 39.9299Z" fill="#E7A94E"/>
<path d="M92.9931 49.2101L92.7784 44.2147L97.8811 46.4977L92.9931 49.2101Z" fill="#E7A94E"/>
<path d="M92.7784 59.978L93.2472 55L97.9908 57.9578L92.7784 59.978Z" fill="#E7A94E"/>
<path d="M89.7784 68.7112L91.4529 64L95.3269 68.0302L89.7784 68.7112Z" fill="#E7A94E"/>
<path d="M84.7784 73.2802L88.552 70L89.9454 75.4137L84.7784 73.2802Z" fill="#E7A94E"/>
<path d="M77.7784 77.8964L81.854 75L82.7126 80.5238L77.7784 77.8964Z" fill="#E7A94E"/>
<path d="M69.4879 79.3558L74.446 78.7095L72.6133 83.9907L69.4879 79.3558Z" fill="#E7A94E"/>
<path d="M60.7886 80L65.7886 80.0102L63.2784 85.0051L60.7886 80Z" fill="#E7A94E"/>
<path d="M50.7886 80L55.7886 80.0102L53.2784 85.0051L50.7886 80Z" fill="#E7A94E"/>
<path d="M38.3835 75.1159C34.911 77.3168 30.9492 78.6274 26.8492 78.9315C22.7492 79.2356 18.6375 78.5239 14.8782 76.8594C11.119 75.1948 7.82828 72.6289 5.29758 69.3888C2.76688 66.1487 1.07431 62.3345 0.369798 58.284C-0.334716 54.2336 -0.0294288 50.0719 1.25862 46.1676C2.54667 42.2633 4.77772 38.7369 7.75415 35.9008C10.7306 33.0647 14.3605 31.0064 18.3224 29.9083C22.2843 28.8102 26.4559 28.7061 30.4676 29.6052L29.1171 35.6309C26.0963 34.9539 22.9551 35.0322 19.9718 35.8591C16.9885 36.686 14.2552 38.2359 12.014 40.3715C9.77277 42.507 8.09281 45.1623 7.12292 48.1023C6.15303 51.0422 5.92315 54.1759 6.45364 57.2258C6.98414 60.2758 8.25863 63.1479 10.1642 65.5876C12.0698 68.0274 14.5477 69.9595 17.3784 71.2129C20.2091 72.4663 23.3052 73.0022 26.3925 72.7732C29.4797 72.5443 32.4629 71.5574 35.0777 69.9001L33.5 67L42.5 68.5L40.5 78L38.3835 75.1159Z" fill="#0E7495"/>
<path d="M23.2749 49.0023L22.7703 55.9841L26.8492 58.284C26.9794 58.7948 26.9406 59.7946 25.7437 59.7081L20.4743 56.3194L20.5103 55.8207L21.0148 48.8389C21.3819 48.5313 22.3479 48.1332 23.2749 49.0023Z" fill="#0E7495"/>
</svg>
